<?xml version="1.0" encoding="UTF-8"?>
<svg version="1.1" xmlns="http://www.w3.org/2000/svg" width="464" height="445">
<path d="M0 0 C1.06412109 -0.01611328 2.12824219 -0.03222656 3.22460938 -0.04882812 C9.68122939 -0.05281615 14.43747239 0.62059772 20.3125 3.3125 C21.10398438 3.663125 21.89546875 4.01375 22.7109375 4.375 C23.36320313 4.684375 24.01546875 4.99375 24.6875 5.3125 C27.80492316 6.76517678 30.57136476 7.55216984 33.9375 8.1875 C40.31833595 9.92044289 44.512827 14.74557618 49.04736328 19.31005859 C52.36515013 22.6331076 54.80966404 24.75294391 59.3125 26.3125 C64.24384538 30.37525614 69.39561579 35.55756629 72.3125 41.3125 C72.415625 42.446875 72.51875 43.58125 72.625 44.75 C73.4187096 48.86285881 74.30061138 49.52064253 77.3125 52.25 C80.23132289 54.93427462 81.83835211 56.56928574 82.3125 60.5625 C82.3125 75.69293478 82.3125 75.69293478 77 81.375 C74.7181851 83.6363042 73.83300224 84.27750199 70.58203125 84.49609375 C69.83308594 84.43550781 69.08414063 84.37492187 68.3125 84.3125 C68.41691406 85.61574219 68.41691406 85.61574219 68.5234375 86.9453125 C68.57757813 88.09773438 68.63171875 89.25015625 68.6875 90.4375 C68.75710937 91.57445313 68.82671875 92.71140625 68.8984375 93.8828125 C68.2573567 97.63527211 68.03383567 97.80612309 65.3046875 100.0390625 C63.12815327 101.98140859 62.38797012 102.90384326 61.85107422 105.81103516 C61.79482795 108.74749567 61.88690563 111.63083754 62.0625 114.5625 C62.14898328 116.5465283 62.22751718 118.53092423 62.296875 120.515625 C62.34553711 121.38864258 62.39419922 122.26166016 62.44433594 123.16113281 C62.3125 125.3125 62.3125 125.3125 60.3125 127.3125 C57.65712628 127.87770003 55.02105287 128.05038198 52.3125 128.3125 C52.15394531 128.87839844 51.99539062 129.44429687 51.83203125 130.02734375 C51.12668295 132.24470942 50.42096848 134.26443129 49.3125 136.3125 C46.625 137.3125 46.625 137.3125 44.3125 137.3125 C44.35375 138.26125 44.395 139.21 44.4375 140.1875 C44.3125 143.3125 44.3125 143.3125 42.3125 145.3125 C41.4875 145.56 40.6625 145.8075 39.8125 146.0625 C37.00529042 147.10725865 37.00529042 147.10725865 36.25 150.25 C35.940625 151.260625 35.63125 152.27125 35.3125 153.3125 C32.82723944 156.18010834 31.38596607 156.30515339 27.5625 156.6875 C22.26252035 156.47985154 17.41087872 154.91714255 13.1875 151.6875 C10.67450927 149.84464013 8.36575688 149.65946101 5.3125 149.3125 C5.044375 149.910625 4.77625 150.50875 4.5 151.125 C3.3125 153.3125 3.3125 153.3125 1.6875 154.8125 C-0.13798309 156.464794 -0.13798309 156.464794 0.3125 160.3125 C1.69632878 161.71909965 1.69632878 161.71909965 3.64453125 162.75 C4.35569092 163.16797852 5.06685059 163.58595703 5.79956055 164.01660156 C6.95065308 164.65807129 6.95065308 164.65807129 8.125 165.3125 C8.89948486 165.75819336 9.67396973 166.20388672 10.47192383 166.66308594 C15.46187441 169.47061401 20.3599631 171.73056777 25.91796875 173.203125 C30.56917379 175.35800629 33.42955948 178.25932057 35.42895508 182.90869141 C36.42598785 185.91920098 37.29803728 188.93851909 38.125 192 C38.42341797 193.04478516 38.72183594 194.08957031 39.02929688 195.16601562 C39.57909063 197.09339643 40.12080857 199.02311337 40.65161133 200.95581055 C41.15638292 202.75579585 41.72133662 204.53900985 42.3125 206.3125 C43.63229513 215.80769276 43.62515092 225.4557931 43.86474609 235.02392578 C43.9162087 237.02907908 43.97362405 239.03407687 44.03125 241.0390625 C44.06154297 242.22064941 44.09183594 243.40223633 44.12304688 244.61962891 C44.01089928 247.22947876 44.01089928 247.22947876 45.3125 248.3125 C45.61975011 250.79179543 45.88181801 253.26429159 46.125 255.75 C46.82236299 262.21287541 47.84267721 268.52836792 49.25 274.875 C49.40766846 275.59937256 49.56533691 276.32374512 49.7277832 277.07006836 C50.70972171 281.34679199 52.00700068 285.37675543 53.59643555 289.46508789 C57.97596288 300.76405937 59.60399205 312.54126865 61.3828125 324.45703125 C62.14622664 329.46888766 63.12816696 334.38456425 64.3125 339.3125 C64.68181641 340.8903125 64.68181641 340.8903125 65.05859375 342.5 C65.54026278 344.45933165 66.03757133 346.41485675 66.546875 348.3671875 C67.03314626 350.23784326 67.48526784 352.11797169 67.890625 354.0078125 C68.4853054 356.37890999 68.99699827 358.24998122 70.3125 360.3125 C73.08268988 361.71408416 75.16552596 361.95137183 78.3125 362.3125 C78.3125 362.9725 78.3125 363.6325 78.3125 364.3125 C81.83392777 364.20168111 85.35437564 364.07127927 88.875 363.9375 C90.3609668 363.89109375 90.3609668 363.89109375 91.87695312 363.84375 C99.79168761 363.54243985 99.79168761 363.54243985 107.3125 361.3125 C108.72014082 359.34954029 108.72014082 359.34954029 109.125 356.875 C109.33769531 355.98296875 109.55039062 355.0909375 109.76953125 354.171875 C110.47175615 350.47382731 111.14484844 346.77585814 111.6875 343.05078125 C112.47684691 339.59245511 113.90133831 336.56415437 115.3125 333.3125 C116.05165415 330.97403724 116.73843174 328.61844628 117.375 326.25 C117.54854004 325.60587158 117.72208008 324.96174316 117.90087891 324.2980957 C119.04258183 319.87952213 119.69628255 315.54500186 120.1875 311 C120.91253429 305.14699587 122.65152874 301.44354425 125.9375 296.609375 C127.36047024 294.23236789 127.86343762 292.4630852 128.3125 289.75 C129.09959597 285.18805601 131.1365788 282.21722815 133.8046875 278.4921875 C135.59626114 275.90229607 136.90749987 273.22869321 138.25390625 270.390625 C139.45260632 268.03745733 140.83628469 265.85528879 142.25 263.625 C145.20831346 258.7861506 147.14108155 253.79922192 149.1015625 248.4921875 C151.45607161 242.30970229 153.76815504 236.64571989 158.625 232.0625 C162.36584843 227.8885007 162.44104222 223.32865755 162.23828125 217.90625 C160.37519956 210.67403414 154.47125231 205.91769541 148.2734375 202.03515625 C145.8496305 201.1419206 143.76665733 201.07143439 141.1875 201 C135.25578157 200.57744479 128.656197 198.656197 124.3125 194.3125 C124.23969036 192.87669394 124.22882577 191.43749502 124.25 190 C124.25902344 189.22011719 124.26804687 188.44023437 124.27734375 187.63671875 C124.29474609 186.48623047 124.29474609 186.48623047 124.3125 185.3125 C124.51135 181.59958968 124.51135 181.59958968 123.6875 179.3125 C123.19854778 176.70475482 123.96476529 175.53229834 125.3125 173.3125 C124.81492187 172.90902344 124.31734375 172.50554687 123.8046875 172.08984375 C122.3125 170.3125 122.3125 170.3125 122.1953125 168.19140625 C122.27523438 167.42699219 122.35515625 166.66257813 122.4375 165.875 C122.59652237 163.49905477 122.59652237 163.49905477 122.3125 161.3125 C119.89369071 159.04372465 119.89369071 159.04372465 117.3125 157.3125 C116.8125 155.00390625 116.8125 155.00390625 117.3125 152.3125 C119.71875 149.98046875 119.71875 149.98046875 122.8125 147.5 C126.41653295 144.30667989 128.1743926 142.40065263 128.796875 137.49609375 C128.72874917 135.44784352 128.56129593 133.42369092 128.38330078 131.38232422 C127.91910389 124.63781637 129.99533896 120.8373322 133.5859375 115.08203125 C135.36936319 112.42227226 135.36936319 112.42227226 136.30859375 109.671875 C138.99811294 103.35098164 146.39004107 99.27372946 152.3125 96.3125 C154.32594106 95.50790854 156.34936786 94.75902331 158.39453125 94.0390625 C160.57987928 93.2538088 160.57987928 93.2538088 163.5625 91.625 C166.3125 90.3125 166.3125 90.3125 170.3125 90.3125 C172.3427589 91.24954257 174.34946582 92.24175408 176.3125 93.3125 C176.6425 92.9825 176.9725 92.6525 177.3125 92.3125 C194.66658894 91.20252137 210.37686084 95.27716048 224.89453125 105.05078125 C233.65342218 112.84222072 241.51516877 129.78301715 242.48950195 141.42797852 C243.02068798 161.04800107 243.02068798 161.04800107 238.3125 170.3125 C238.00441406 170.96863281 237.69632812 171.62476563 237.37890625 172.30078125 C236.72747977 173.65662105 236.0277791 174.98923366 235.3125 176.3125 C236.5190625 176.2815625 236.5190625 176.2815625 237.75 176.25 C240.3125 176.3125 240.3125 176.3125 241.3125 177.3125 C241.30345315 179.83657039 241.17962709 182.34634749 241.0546875 184.8671875 C241.04552912 187.37174986 241.04552912 187.37174986 242.80761719 188.68017578 C244.7847472 190.82473958 244.66866102 191.9951705 244.6484375 194.875 C244.66132813 195.75414062 244.67421875 196.63328125 244.6875 197.5390625 C244.6875 199.38803734 244.67968708 201.23702868 244.6640625 203.0859375 C244.7080107 205.58366025 244.77706871 207.87139391 245.3125 210.3125 C247.63029376 212.47504885 247.63029376 212.47504885 250.3125 213.3125 C252.09539958 215.09539958 251.59076047 217.76554965 251.70703125 220.18359375 C251.81047852 222.00600586 251.81047852 222.00600586 251.91601562 223.86523438 C252.05341993 226.41941352 252.18130346 228.97412584 252.29882812 231.52929688 C252.70626219 238.39077494 253.63942477 243.65822791 256.47241211 249.8972168 C258.30410596 255.16340317 257.37591482 260.89240994 256.98046875 266.36523438 C256.7750264 271.44816148 256.80504453 274.36008935 260.33203125 278.21484375 C260.88995361 278.7162085 261.44787598 279.21757324 262.02270508 279.73413086 C263.3125 281.3125 263.3125 281.3125 263.45581055 283.46704102 C263.16324785 285.43077367 262.74673114 287.37516106 262.3125 289.3125 C262.6425 289.6425 262.9725 289.9725 263.3125 290.3125 C263.38557864 293.29045447 263.30868104 296.25631197 263.25 299.234375 C263.30783001 302.08250287 263.74858431 304.5338509 264.3125 307.3125 C264.26100028 308.79311685 264.17834129 310.27302361 264.0625 311.75 C263.9719689 316.72921067 266.02658739 318.62586634 269.3125 322.3125 C270 326.0625 270 326.0625 270.3125 329.3125 C270.9725 329.9725 271.6325 330.6325 272.3125 331.3125 C272.37182617 333.17602539 272.37182617 333.17602539 272.10546875 335.41015625 C271.9672168 336.61188477 271.9672168 336.61188477 271.82617188 337.83789062 C271.71853516 338.67513672 271.61089844 339.51238281 271.5 340.375 C271.40396484 341.21611328 271.30792969 342.05722656 271.20898438 342.92382812 C270.45959249 349.16540751 270.45959249 349.16540751 269.3125 350.3125 C269.01863847 354.03474599 269.16440829 355.09036243 271.3125 358.3125 C271.40234375 360.80078125 271.40234375 360.80078125 271.25 363.625 C271.14251224 368.43665779 271.99433998 371.06253996 274.3125 375.3125 C274.72162854 379.1992211 274.92279618 381.3848498 272.75 384.6875 C270.82853319 388.19626548 271.46777753 390.48718586 272.18359375 394.32421875 C272.24740234 395.30841797 272.24740234 395.30841797 272.3125 396.3125 C271.6525 396.9725 270.9925 397.6325 270.3125 398.3125 C269.90083355 402.42916454 270.21138739 405.06162114 271.765625 408.91796875 C273.63563251 413.71530631 274.01350467 418.397208 274.375 423.5 C274.7753669 428.88711506 275.24584407 433.28822982 277.3125 438.3125 C276.86743164 440.44604492 276.86743164 440.44604492 276.3125 442.3125 C257.75000312 442.38621529 239.18750278 442.459036 220.625 442.53125 C219.91022362 442.53403196 219.19544723 442.53681392 218.45901096 442.53968018 C181.56677893 442.68323079 144.67453323 442.82082968 107.78222656 442.94384766 C106.59271864 442.9478183 106.59271864 442.9478183 105.37918025 442.95186916 C89.44574357 443.00504002 73.51230474 443.05752822 57.57886191 443.10882197 C49.01286017 443.13640459 40.44685932 443.1642512 31.88085938 443.19238281 C31.12758745 443.19485349 30.37431553 443.19732417 29.59821719 443.19986972 C7.35629509 443.27296744 -14.88548307 443.36306794 -37.12726593 443.47135544 C-51.92835099 443.5430987 -66.72942699 443.60038919 -81.53063202 443.64073563 C-90.26649568 443.66511967 -99.00203477 443.70383127 -107.73773789 443.76238048 C-113.51446166 443.7998019 -119.29106014 443.81978507 -125.06790328 443.82441533 C-128.28305007 443.82749351 -131.49751257 443.84109852 -134.71253204 443.87157822 C-138.08254443 443.90253652 -141.45117775 443.90348867 -144.82128906 443.89599609 C-145.79414856 443.91240395 -146.76700806 443.9288118 -147.76934814 443.94571686 C-150.17810788 443.92292022 -152.3418549 443.85715612 -154.6875 443.3125 C-157.13005815 440.7574016 -157.58153929 439.17378089 -158.00788879 435.70828247 C-157.98312973 434.78119476 -157.95837067 433.85410706 -157.93286133 432.89892578 C-157.90347221 431.31170212 -157.90347221 431.31170212 -157.87348938 429.69241333 C-157.82203011 427.99228592 -157.82203011 427.99228592 -157.76953125 426.2578125 C-157.73159198 423.84506499 -157.69450913 421.43230389 -157.65820312 419.01953125 C-157.58376665 415.22499046 -157.49983257 411.43115889 -157.3996582 407.63720703 C-157.30887119 403.9690304 -157.25568153 400.30175627 -157.20703125 396.6328125 C-157.16665237 395.50344269 -157.1262735 394.37407288 -157.08467102 393.21047974 C-157.03418513 387.90873432 -157.08146221 384.31072315 -160.578125 380.14257812 C-162.8114609 377.93776962 -165.08272478 376.14773175 -167.875 374.6875 C-172.44374311 372.29048685 -174.06080944 369.0498379 -175.78515625 364.26953125 C-176.10355469 363.23183594 -176.42195312 362.19414062 -176.75 361.125 C-177.99319476 356.78891867 -177.99319476 356.78891867 -180.6875 353.3125 C-183.2332876 346.38230042 -183.90804424 339.7439655 -181.1875 332.75 C-179.10046229 328.48005358 -176.22090322 325.69551775 -172.78125 322.48046875 C-165.51228631 314.95383657 -160.71581394 305.36684108 -159.66015625 295 C-159.54975258 293.97589775 -159.54975258 293.97589775 -159.43711853 292.93110657 C-159.28063077 291.47680047 -159.12859295 290.02200954 -158.98071289 288.56680298 C-158.58939522 284.74322561 -158.15661676 280.9244073 -157.72265625 277.10546875 C-157.63690338 276.3479985 -157.55115051 275.59052826 -157.46279907 274.81010437 C-155.33251733 256.31668532 -152.04213213 238.00809258 -145.0234375 220.6953125 C-144.0604797 218.25694567 -143.17912531 215.84987592 -142.3515625 213.3671875 C-139.57130098 205.17565907 -136.35891582 198.99612164 -130.86328125 192.1796875 C-126.31504167 186.18613659 -123.40400115 179.33535593 -120.8125 172.3125 C-118.37731053 166.03913124 -114.58508044 160.75947196 -110.6875 155.3125 C-109.93726562 154.26191406 -109.18703125 153.21132812 -108.4140625 152.12890625 C-96.01915841 135.18638376 -96.01915841 135.18638376 -88.55078125 133.6796875 C-86.79314453 133.43605469 -86.79314453 133.43605469 -85 133.1875 C-83.82050781 133.01992187 -82.64101562 132.85234375 -81.42578125 132.6796875 C-80.52214844 132.55851563 -79.61851563 132.43734375 -78.6875 132.3125 C-78.63358007 130.52116022 -78.59474429 128.72936101 -78.5625 126.9375 C-78.53929688 125.93976563 -78.51609375 124.94203125 -78.4921875 123.9140625 C-78.41533152 121.14987827 -78.41533152 121.14987827 -80.6875 119.3125 C-80.8125 116.6875 -80.8125 116.6875 -80.6875 114.3125 C-82.3375 113.9825 -83.9875 113.6525 -85.6875 113.3125 C-86.14183949 106.14632708 -83.1780675 102.63852192 -78.6875 97.3125 C-76.09792347 94.6619524 -73.44143408 92.07976261 -70.68847656 89.59912109 C-67.16335536 86.29869532 -66.09969482 84.08990558 -65.6875 79.3125 C-64.69442179 77.97400329 -63.69392948 76.64098691 -62.6875 75.3125 C-60.84277937 70.1220313 -60.32648289 65.14034464 -59.85131836 59.66918945 C-58.28924862 42.52867607 -58.28924862 42.52867607 -51.52734375 36.14453125 C-49.53990571 34.42122575 -49.53990571 34.42122575 -48.80859375 31.9453125 C-47.26261114 28.31467738 -44.64159614 26.02430946 -41.8125 23.375 C-37.81176531 19.60301778 -34.682955 15.97353128 -31.6875 11.3125 C-27.46610872 6.49255324 -23.09695729 4.44895239 -16.921875 2.953125 C-6.55395916 -0.01949423 -6.55395916 -0.01949423 0 0 Z " fill="#d4af37" transform="translate(183.6875,0.6875)"/>
<path d="M0 0 C0.66 0.33 1.32 0.66 2 1 C1.360625 1.78375 0.72125 2.5675 0.0625 3.375 C-1.98142313 5.79539281 -1.98142313 5.79539281 -3 8 C-4.4375 9.625 -4.4375 9.625 -6 11 C-6.66 11 -7.32 11 -8 11 C-6.52670958 5.99081256 -3.72484762 3.48192278 0 0 Z " fill="#d4af37" transform="translate(157,7)"/>
<path d="M0 0 C0.66 0.99 1.32 1.98 2 3 C1.125 6.6875 1.125 6.6875 0 10 C-0.66 10 -1.32 10 -2 10 C-1.125 2.25 -1.125 2.25 0 0 Z " fill="#d4af37" transform="translate(303,319)"/>
</svg>
